<?xml version="1.0" encoding="UTF-8"?>
<svg version="1.1" viewBox="0 0 1600 896" width="1280" height="1280" xmlns="http://www.w3.org/2000/svg">
<path transform="translate(0)" d="m0 0h1600v896h-1600v-896z" fill="#FCFDFF"/>
<path transform="translate(445 88.8)" d="m0 0c0.889 8.82e-5 1.78 1.76e-4 2.69 2.67e-4 1.03-0.00475 2.05-0.0095 3.11-0.0144 1.14 0.00497 2.28 0.00994 3.45 0.0151 1.21-0.00261 2.41-0.00521 3.65-0.0079 3.37-0.00524 6.74-0.00143 10.1 0.00606 3.66 0.00594 7.32 3.48e-4 11-0.00382 6.42-0.0057 12.8-0.00392 19.3 0.00269 9.55 0.00979 19.1 0.00819 28.6 0.00425 16.1-0.00629 32.1-0.00309 48.2 0.00559 15.9 0.0086 31.8 0.0135 47.7 0.0133 0.988-7.65e-6 1.98-1.53e-5 2.99-2.32e-5 4.01-4.09e-5 8.02-1.07e-4 12-2.06e-4 37.7-9.07e-4 75.3 0.00905 113 0.0244 33.5 0.0136 67 0.0199 100 0.0192 2.15-4.04e-5 4.3-8.08e-5 6.45-1.21e-4 1.59-3.05e-5 1.59-3.05e-5 3.22-6.17e-5 5.35-1.01e-4 10.7-1.91e-4 16.1-2.7e-4 1.06-1.67e-5 2.11-3.34e-5 3.2-5.06e-5 27.9-3.65e-4 55.9 0.00417 83.8 0.0104 0.994 2.2e-4 1.99 4.41e-4 3.01 6.67e-4 4 8.88e-4 7.99 0.00178 12 0.00269 13.9 0.00316 27.9 0.00467 41.8 0.00511 17.9 5.96e-4 35.9 0.00457 53.8 0.0144 9.5 0.00513 19 0.00752 28.5 6e-3 6.33-7.31e-4 12.7 0.00214 19 0.00804 3.62 0.00327 7.23 0.00491 10.8 0.00224 3.88-0.00283 7.76 0.00196 11.6 0.00761 1.71-0.00308 1.71-0.00308 3.46-0.00623 1.54 0.00414 1.54 0.00414 3.1 0.00836 1.33 4.37e-4 1.33 4.37e-4 2.69 8.83e-4 2 0.126 2 0.126 3 1.13 0.163 2.02 0.252 4.04 0.316 6.06 0.0208 0.657 0.0415 1.31 0.0629 1.99 0.0681 2.28 0.126 4.56 0.183 6.84 0.0211 0.818 0.0422 1.64 0.0639 2.48 0.664 26.7 0.47 53.4 0.412 80.1-0.0178 8.25-0.0292 16.5-0.0405 24.8-0.021 15.2-0.0469 30.4-0.0756 45.7-0.0284 15-0.0546 30.1-0.0778 45.1-0.00218 1.41-0.00218 1.41-0.00441 2.85-0.00738 4.78-0.0147 9.55-0.022 14.3-0.0518 33.7-0.108 67.4-0.168 101-0.0578 32.7-0.113 65.4-0.166 98.2-0.00163 1.01-0.00325 2.02-0.00493 3.06-0.0163 10.2-0.0326 20.3-0.0488 30.5-0.0331 20.7-0.0665 41.4-0.1 62-0.00154 0.951-0.00309 1.9-0.00468 2.88-0.103 63.3-0.213 127-0.324 190-68.2 0.0171-136 0.033-204 0.0423-1.01 1.38e-4 -2.02 2.76e-4 -3.05 4.18e-4 -21.9 0.00299-43.8 0.00576-65.7 0.0083-10.7 0.00125-21.5 0.00254-32.2 0.00387-1.6 1.96e-4 -1.6 1.96e-4 -3.24 3.96e-4 -34.7 0.00427-69.3 0.0118-104 0.021-35.6 0.00942-71.2 0.0156-107 0.0176-5.02 2.88e-4 -10 6.14e-4 -15.1 9.62e-4 -0.989 6.74e-5 -1.98 1.35e-4 -3 2.04e-4 -16 0.00118-31.9 0.00583-47.9 0.0118-16 0.00587-32 0.00814-48.1 0.00667-9.53-7.64e-4 -19.1 0.00129-28.6 0.0073-6.35 0.00373-12.7 0.00388-19.1 0.00103-3.63-0.00152-7.26-0.0014-10.9 0.00305-3.89 0.00475-7.79 0.00188-11.7-0.00184-1.72 0.00394-1.72 0.00394-3.47 0.00796-1.03-0.00225-2.05-0.00449-3.11-0.00681-0.892 1.56e-4 -1.78 3.12e-4 -2.7 4.73e-4 -2.01-0.125-2.01-0.125-3.01-1.12-0.0982-1.57-0.126-3.14-0.126-4.71-0.00276-1.03-0.00552-2.06-0.00836-3.12 0.00206-1.15 0.00411-2.29 0.00623-3.47-0.00175-1.21-0.00351-2.42-0.00531-3.66-0.00388-3.39-0.00322-6.77-7.22e-4 -10.2 0.00162-3.67-0.0025-7.35-0.00591-11-0.00517-6.45-0.00657-12.9-0.00554-19.3 0.00152-9.59-0.00263-19.2-0.00787-28.8-0.00969-18.1-0.0125-36.2-0.0131-54.4-4.59e-4 -14-0.00251-28-0.0057-42-8.97e-4 -4.02-0.00179-8.04-0.00267-12.1-2.21e-4 -0.999-4.42e-4 -2-6.7e-4 -3.03-0.00616-28.1-0.0101-56.2-0.00966-84.4 1.56e-5 -1.06 3.12e-5 -2.12 4.72e-5 -3.22 8.31e-5 -5.38 1.82e-4 -10.8 2.85e-4 -16.1 1.99e-5 -1.07 3.99e-5 -2.14 6.04e-5 -3.24 4.04e-5 -2.16 8.22e-5 -4.32 1.25e-4 -6.48 6.13e-4 -33.6-0.0069-67.3-0.0206-101-0.0153-37.7-0.024-75.5-0.023-113 7.46e-5 -4.02 1.23e-4 -8.04 1.54e-4 -12.1 1.75e-5 -1.49 1.75e-5 -1.49 3.53e-5 -3 3.08e-5 -16-0.00637-31.9-0.015-47.9-0.00846-16-0.00948-32.1-0.00289-48.1 0.00371-9.54 0.00182-19.1-0.00794-28.6-0.00596-6.36-0.00475-12.7 0.00247-19.1 0.00391-3.63 0.00457-7.26-0.00346-10.9-0.00855-3.9-0.00184-7.8 0.00656-11.7-0.00497-1.14-0.00994-2.29-0.0151-3.46 0.00475-1.03 0.0095-2.06 0.0144-3.12-8.82e-5 -0.893-1.76e-4 -1.79-2.67e-4 -2.71 0.355-3.03 1.34-4.03 4.37-4.38z" fill="#020F43"/>
<path transform="translate(800 316)" d="m0 0c1.09-0.00767 1.09-0.00767 2.2-0.0155 2.42-0.014 4.83-0.0129 7.25-0.0106 1.69-0.00389 3.38-0.00822 5.06-0.013 3.55-0.00748 7.1-0.00716 10.7-0.00191 4.51 0.00574 9.02-0.011 13.5-0.0343 3.49-0.0149 6.99-0.0156 10.5-0.0125 1.66-5.08e-4 3.32-0.00564 4.98-0.0158 20.6-0.111 42.3 3.27 58 17.9 10.4 11 16 24.4 16.8 39.5 0.0793 1.21 0.0793 1.21 0.16 2.44 0.562 16.4-3.93 31.4-15.2 43.6-14.8 14-33.8 19-53.8 19.2-1.65 0.0329-3.29 0.0661-4.94 0.0996-2.57 0.0476-5.13 0.0922-7.7 0.131-2.5 0.0396-4.99 0.0911-7.49 0.144-1.15 0.0126-1.15 0.0126-2.33 0.0255-3.77 0.0879-5.56 0.21-8.78 2.35-0.474 1.89-0.474 1.89-0.432 4.08-0.0297 1.26-0.0297 1.26-0.06 2.55-0.00639 0.908-0.0128 1.82-0.0194 2.75-0.018 0.929-0.0359 1.86-0.0544 2.82-0.0543 2.98-0.0881 5.95-0.121 8.93-0.0332 2.01-0.0676 4.03-0.104 6.04-0.0851 4.94-0.152 9.89-0.209 14.8-2.31 0.0269-4.62 0.0463-6.94 0.0625-1.29 0.0116-2.58 0.0232-3.9 0.0352-3.16-0.0977-3.16-0.0977-4.16-1.1-0.157-1.56-0.251-3.13-0.316-4.69-0.0628-1.42-0.0628-1.42-0.127-2.86-0.0393-0.993-0.0786-1.99-0.119-3.01-0.0432-0.997-0.0864-1.99-0.131-3.02-0.106-2.47-0.208-4.94-0.307-7.42-2.44-0.054-4.87-0.0937-7.31-0.125-0.69-0.0168-1.38-0.0335-2.09-0.0508-3.77-0.0364-5.38 0.032-8.6 2.18-1.26 4.14-1.31 8.51-1.56 12.8-0.0648 1.04-0.0648 1.04-0.131 2.1-0.105 1.7-0.206 3.39-0.307 5.09-2.44 0.081-4.87 0.14-7.31 0.188-0.69 0.0251-1.38 0.0503-2.09 0.0762-5.15 0.0747-5.15 0.0747-7.21-1.5-1.59-2.02-2.28-3.75-3.08-6.19-0.315-0.939-0.629-1.88-0.953-2.84-0.342-1.04-0.683-2.09-1.03-3.16-0.78-2.32-1.56-4.64-2.35-6.96-0.218-0.643-0.437-1.29-0.662-1.95-3.47-10.1-7.18-20.2-10.9-30.3-0.735-2.01-1.47-4.03-2.2-6.04-1.74-4.78-3.49-9.55-5.23-14.3-2.29 0.871-2.29 0.871-3.08 3.7-0.387 1.2-0.773 2.4-1.17 3.63-0.214 0.654-0.428 1.31-0.648 1.98-0.463 1.42-0.923 2.84-1.38 4.26-1.22 3.8-2.48 7.59-3.72 11.4-0.38 1.15-0.38 1.15-0.767 2.33-2.28 6.92-4.7 13.8-7.17 20.6-0.399 1.11-0.798 2.22-1.21 3.36-0.834 2.31-1.67 4.63-2.5 6.94-2.59 7.2-5.12 14.4-7.66 21.6-0.497 1.41-0.993 2.82-1.49 4.23-0.239 0.678-0.478 1.36-0.724 2.06-0.471 1.33-0.942 2.67-1.42 4-1.16 3.28-2.31 6.56-3.42 9.85-0.22 0.641-0.44 1.28-0.667 1.94-0.601 1.75-1.19 3.5-1.79 5.26-1.85 4.35-1.85 4.35-4.19 5.79-2.69 0.298-5.15 0.421-7.84 0.398-1.15 0.00431-1.15 0.00431-2.32 0.0087-1.62 0.00204-3.23-0.00349-4.85-0.016-2.48-0.0161-4.95-1.5e-4 -7.43 0.019-1.57-0.00198-3.14-0.00583-4.71-0.0117-0.741 0.00607-1.48 0.0121-2.24 0.0184-5.21-0.0713-5.21-0.0713-7.32-1.94-0.423-0.487-0.845-0.974-1.28-1.48 17.5-45.3 35-90.7 52.7-136 4.11-10.5 8.19-21 12.2-31.5 2.01-5.22 4.04-10.4 6.06-15.6 0.372-0.958 0.744-1.92 1.13-2.9 0.967-2.47 1.95-4.94 2.93-7.41 0.263-0.677 0.526-1.35 0.798-2.05 1.37-3.36 2.02-4.56 5.14-6.64 4.07 5.4 6.2 11.2 8.53 17.5 0.886 2.35 1.77 4.69 2.66 7.04 0.46 1.22 0.919 2.44 1.39 3.69 2.33 6.12 4.73 12.2 7.13 18.3 0.475 1.21 0.951 2.41 1.44 3.66 1.94 4.94 3.89 9.88 5.84 14.8 1.45 3.68 2.9 7.35 4.34 11 0.44 1.11 0.879 2.22 1.33 3.37 0.408 1.04 0.816 2.07 1.24 3.14 0.356 0.903 0.712 1.81 1.08 2.74 1.01 2.67 1.01 2.67 1.95 5.89 0.857 3.07 0.857 3.07 4.06 4.79 0.0735-1.16 0.0735-1.16 0.148-2.34 0.0748-1 0.15-2.01 0.227-3.04 0.104-1.5 0.104-1.5 0.211-3.02 0.414-2.6 0.414-2.6 2.41-4.6 2.97-0.258 2.97-0.258 6.83-0.271 1.05-0.00784 1.05-0.00784 2.13-0.0158 1.53-0.0103 3.06-0.016 4.59-0.0179 2.43-0.00366 4.86-0.0204 7.29-0.0408 6.91-0.0554 13.8-0.0859 20.7-0.111 4.23-0.016 8.46-0.0464 12.7-0.0848 1.6-0.0116 3.21-0.0176 4.81-0.0177 18.1 0.0838 18.1 0.0838 33.4-8.62 4.8-5.72 4.34-12.8 3.81-19.9-0.891-5.88-4.73-9.57-9.04-13.3-9.96-4.98-19.7-5.08-30.6-5.1-1.66-0.0143-3.33-0.0301-4.99-0.0472-4.35-0.0416-8.7-0.0668-13.1-0.0875-7-0.036-14-0.0967-21-0.158-2.44-0.0191-4.88-0.0308-7.33-0.0414-1.48-0.0102-2.97-0.0206-4.45-0.0311-1.3-0.0065-2.6-0.013-3.94-0.0197-2.9-0.138-2.9-0.138-3.9-1.14-0.113-2.5-0.164-4.97-0.168-7.46-0.00499-1.12-0.00499-1.12-0.0101-2.27-0.00507-1.59-0.00741-3.17-0.00725-4.76-0.00218-2.43-0.0203-4.86-0.0393-7.3-0.00293-1.54-0.00492-3.08-0.00586-4.62-0.00719-0.73-0.0144-1.46-0.0218-2.21 0.0339-7.45 2.33-7.64 9.31-7.66z" fill="#FCFDFF"/>
<path transform="translate(818 503)" d="m0 0c1.08 0.0142 2.16 0.0284 3.28 0.043 1.63 0.00967 1.63 0.00967 3.29 0.0195 2.65 0.168 2.65 0.168 3.65 1.17 0.0863 1.34 0.107 2.69 0.0977 4.04-0.00322 0.809-0.00645 1.62-0.00977 2.45-0.00838 0.85-0.0168 1.7-0.0254 2.58-0.00451 0.854-0.00902 1.71-0.0137 2.59-0.0118 2.12-0.0298 4.23-0.0488 6.35-2.31 0.194-4.62 0.38-6.94 0.562-1.93 0.157-1.93 0.157-3.9 0.316-1.04 0.04-2.09 0.0799-3.16 0.121-2.1-2.1-1.19-6.54-1.19-9.44-0.0122-0.79-0.0245-1.58-0.0371-2.39-0.00526-2.06 0.103-4.12 0.225-6.17 2-2 2-2 4.79-2.23z" fill="#FCFDFF"/>
<path transform="translate(788 503)" d="m0 0c2.5 0.125 2.5 0.125 3.5 1.12 0.0732 2.7 0.0924 5.37 0.0625 8.06-0.00451 0.759-0.00902 1.52-0.0137 2.3-0.0118 1.88-0.0298 3.76-0.0488 5.64-4.66-2.39-4.66-2.39-6.18-5.12-0.344-1.15-0.344-1.15-0.695-2.32-0.367-1.14-0.367-1.14-0.742-2.31-0.417-2.45-0.212-3.92 0.617-6.25 1-1 1-1 3.5-1.12z" fill="#FCFDFF"/>
</svg>
