<svg xmlns="http://www.w3.org/2000/svg" xmlns:xlink="http://www.w3.org/1999/xlink" width="500" zoomAndPan="magnify" viewBox="0 0 375 374.999991" height="500" preserveAspectRatio="xMidYMid meet" version="1.0"><defs><g/></defs><g fill="#ffffff" fill-opacity="1"><g transform="translate(144.506671, 224.946751)"><g><path d="M 51.230469 -0.980469 L 26.429688 -64.769531 C 26.183594 -65.421875 25.042969 -65.421875 24.796875 -64.769531 L 0.0820312 -0.980469 C -0.164062 -0.488281 0.164062 0 0.898438 0 L 12.074219 0 C 12.398438 0 12.808594 -0.164062 12.890625 -0.488281 L 25.613281 -36.871094 L 38.503906 -0.488281 C 38.585938 -0.164062 38.992188 0 39.238281 0 L 50.496094 0 C 51.066406 0 51.472656 -0.488281 51.230469 -0.980469 Z M 51.230469 -0.980469 "/></g></g></g><g fill="#ffffff" fill-opacity="1"><g transform="translate(184.319788, 224.946751)"><g><path d="M 21.945312 -65.257812 L 0.816406 -65.257812 C 0.40625 -65.257812 0 -64.851562 0 -64.523438 L 0 -53.269531 L 21.945312 -53.269531 C 23.410156 -53.269531 31.570312 -52.859375 31.570312 -45.683594 C 31.570312 -38.503906 23.574219 -38.339844 21.945312 -38.339844 L 0 -38.339844 L 0 -0.734375 C 0 -0.40625 0.40625 0 0.816406 0 L 11.421875 0 C 11.992188 0 12.234375 -0.40625 12.234375 -0.734375 L 12.234375 -26.265625 L 21.945312 -26.265625 C 23.492188 -26.265625 43.96875 -26.511719 43.96875 -45.683594 C 43.96875 -64.851562 24.554688 -65.257812 21.945312 -65.257812 Z M 21.945312 -65.257812 "/></g></g></g><g fill="#000000" fill-opacity="1"><g transform="translate(177.567753, 231.129674)"><g><path d="M 12.859375 -16.515625 L 19.328125 -16.515625 L 19.328125 -12.03125 L 12.859375 -12.03125 L 12.859375 -5.46875 L 8.1875 -5.46875 L 8.1875 -12.03125 L 1.703125 -12.03125 L 1.703125 -16.515625 L 8.1875 -16.515625 L 8.1875 -23.078125 L 12.859375 -23.078125 Z M 12.859375 -16.515625 "/></g></g></g></svg>